<?xml version="1.0" encoding="utf-8"?>
<!-- Generator: Adobe Illustrator 23.1.0, SVG Export Plug-In . SVG Version: 6.00 Build 0)  -->
<svg version="1.1" id="Layer_1" xmlns="http://www.w3.org/2000/svg" xmlns:xlink="http://www.w3.org/1999/xlink" x="0px" y="0px"
	 viewBox="0 0 401.3 216" style="enable-background:new 0 0 401.3 216;" xml:space="preserve">
<style type="text/css">
	.st0{fill:#FFFFFF;}
</style>
<g>
	<path class="st0" d="M25,199.6c-2.6,0-4.8-2-5-4.6c-0.2-2.8,1.8-5.2,4.6-5.4c17.6-1.4,30.1-8,37.1-19.7C66.8,161.3,67,153,67,153
		V66.7c0-2.8,2.2-5,5-5s5,2.2,5,5V153c0,0.5-1,42.7-51.7,46.6C25.2,199.5,25.1,199.6,25,199.6z"/>
	<path class="st0" d="M72,50.9c-2.8,0-5-2.2-5-5V27.3c0-2.8,2.2-5,5-5s5,2.2,5,5v18.6C77,48.7,74.8,50.9,72,50.9z"/>
	<path class="st0" d="M148.6,163c-27.8,0-50.4-23.6-50.4-52.6s22.6-52.6,50.4-52.6l0,0c23.6,0,43.8,16.8,49.1,40.8
		c0.3,1.5,0,3-1,4.2c-0.9,1.2-2.4,1.9-3.9,1.9h-62.9c-2.8,0-5-2.2-5-5s2.2-5,5-5h56.2c-6-16.1-20.7-26.8-37.6-26.8l0,0
		c-22.3,0-40.4,19.1-40.4,42.6s18.1,42.6,40.4,42.6c11.4,0,22.4-5.1,30-14.1c1.8-2.1,5-2.3,7-0.6c2.1,1.8,2.3,5,0.6,7
		C176.6,156.6,162.9,163,148.6,163z"/>
	<path class="st0" d="M223.7,167.7c-2.8,0-5-2.2-5-5v-60.8c0-0.1,0-0.2,0-0.3c0-0.4,3.4-40.5,50.6-43.7c2.7-0.2,5.1,1.9,5.3,4.7
		c0.2,2.8-1.9,5.1-4.7,5.3c-37.4,2.5-41,31.6-41.3,34.3v60.6C228.7,165.5,226.4,167.7,223.7,167.7z"/>
	<path class="st0" d="M374.8,164.4c-2.8,0-5-2.2-5-5v-59.2c-4.4-19.1-20.5-32.4-39.3-32.4l0,0c-22.3,0-40.4,19.1-40.4,42.6
		s18.1,42.6,40.4,42.6c5.9,0,11.6-1.3,16.9-3.9c2.5-1.2,5.5-0.2,6.7,2.3s0.2,5.5-2.3,6.7c-6.7,3.2-13.8,4.9-21.2,4.9
		c-27.8,0-50.4-23.6-50.4-52.6s22.6-52.6,50.4-52.6l0,0c23.6,0,43.8,16.8,49.1,40.8c0.1,0.4,0.1,0.7,0.1,1.1v59.8
		C379.8,162.2,377.5,164.4,374.8,164.4z"/>
</g>
</svg>